<?xml version="1.0" standalone="no"?>
<!DOCTYPE svg PUBLIC "-//W3C//DTD SVG 20010904//EN"
 "http://www.w3.org/TR/2001/REC-SVG-20010904/DTD/svg10.dtd">
<svg version="1.0" xmlns="http://www.w3.org/2000/svg"
 width="120.000000pt" height="120.000000pt" viewBox="0 0 120.000000 120.000000"
 preserveAspectRatio="xMidYMid meet">
<metadata>
Created by potrace 1.11, written by Peter Selinger 2001-2013
</metadata>
<g transform="translate(0.000000,120.000000) scale(0.100000,-0.100000)"
fill="#000000" stroke="none">
<path d="M930 1116 c-6 -6 -10 -6 -10 -2 0 5 -7 3 -15 -4 -8 -7 -15 -9 -15 -5
0 4 -7 2 -15 -5 -8 -7 -15 -10 -15 -7 0 3 -20 -15 -45 -40 -25 -24 -45 -49
-45 -54 0 -5 -4 -9 -8 -9 -4 0 -8 -10 -9 -22 -1 -11 -6 -24 -10 -27 -10 -8
-11 -111 0 -111 4 0 7 -6 7 -13 0 -10 -61 -13 -296 -12 -281 0 -296 1 -310 19
-8 11 -14 16 -14 10 -1 -5 -10 2 -20 15 -11 13 -20 19 -20 15 0 -5 -6 -2 -13
8 -26 34 -77 24 -77 -15 1 -25 24 -60 33 -50 4 3 9 -2 13 -11 3 -9 12 -16 19
-16 8 0 23 -12 35 -28 12 -15 23 -25 24 -22 3 5 55 -32 87 -62 11 -10 23 -18
28 -18 6 0 17 -10 25 -22 9 -12 16 -18 16 -13 1 6 10 -1 20 -14 11 -13 20 -21
20 -17 0 6 29 -16 62 -46 10 -10 18 -15 18 -11 0 4 11 -4 24 -18 22 -24 23
-30 22 -184 l-1 -160 -92 0 c-74 0 -95 -4 -111 -18 -24 -22 -18 -53 11 -62 12
-4 119 -8 237 -9 175 -2 220 1 242 13 36 20 41 35 16 58 -17 15 -37 18 -117
18 l-96 0 0 160 c0 88 3 160 6 160 4 0 16 11 28 25 11 14 20 22 21 18 0 -3 16
8 36 25 19 18 39 32 42 31 4 0 15 9 24 20 10 12 17 18 18 14 0 -4 10 3 23 15
37 35 67 57 67 50 0 -4 6 0 13 8 20 25 105 89 116 89 6 0 11 5 11 10 0 6 11
15 24 21 24 11 39 49 27 67 -16 24 -43 20 -86 -13 -25 -19 -45 -32 -45 -28 0
4 -7 -3 -16 -15 -8 -12 -21 -22 -27 -22 -8 0 -9 3 -1 8 6 4 10 32 9 62 -1 30
1 60 4 65 3 6 6 12 6 15 2 15 32 50 42 50 7 0 13 5 13 11 0 5 4 8 9 5 5 -4 11
-1 13 5 6 17 128 14 128 -4 0 -4 4 -6 9 -2 11 6 58 -52 54 -66 -2 -5 2 -9 8
-9 6 0 9 -7 6 -15 -4 -8 -2 -17 3 -20 6 -4 7 -40 0 -40 -1 0 -3 -12 -4 -27 -3
-29 -35 -66 -76 -88 -30 -16 -98 -21 -122 -8 -12 6 -26 3 -43 -8 -20 -13 -23
-20 -14 -35 17 -32 56 -51 109 -53 27 -1 50 2 50 6 0 4 8 8 18 8 10 0 28 7 40
16 12 8 22 13 22 11 0 -3 17 11 38 32 21 20 36 39 34 44 -2 4 1 7 6 7 12 0 14
12 17 108 2 63 -1 91 -13 114 -20 37 -64 84 -75 80 -4 -1 -10 5 -13 13 -3 8
-10 13 -14 10 -5 -3 -11 -1 -15 5 -3 5 -16 10 -29 10 -12 0 -26 3 -30 7 -11
11 -65 10 -76 -1z m-278 -440 c-31 -22 -63 -47 -72 -55 -54 -51 -97 -69 -107
-45 -3 8 -9 12 -13 9 -5 -3 -16 5 -25 17 -8 13 -17 21 -19 18 -3 -3 -21 9 -40
27 -20 17 -36 28 -36 25 -1 -4 -9 3 -19 15 -10 12 -21 20 -24 17 -3 -3 -7 -2
-10 3 -3 4 91 8 208 9 l213 0 -56 -40z"/>
</g>
</svg>
